<svg width="20" height="20" viewBox="0 0 20 20" fill="none" xmlns="http://www.w3.org/2000/svg">
<path d="M8.42917 18.1758C8.93417 18.5925 9.46083 18.9733 10 19.345C10.5403 18.9782 11.0644 18.5881 11.5708 18.1758C12.415 17.4827 13.2095 16.7311 13.9483 15.9266C15.6517 14.0641 17.5 11.3641 17.5 8.33331C17.5 7.3484 17.306 6.37313 16.9291 5.46319C16.5522 4.55325 15.9997 3.72645 15.3033 3.03001C14.6069 2.33357 13.7801 1.78113 12.8701 1.40422C11.9602 1.02731 10.9849 0.833313 10 0.833313C9.01509 0.833313 8.03982 1.02731 7.12987 1.40422C6.21993 1.78113 5.39314 2.33357 4.6967 3.03001C4.00026 3.72645 3.44781 4.55325 3.0709 5.46319C2.69399 6.37313 2.5 7.3484 2.5 8.33331C2.5 11.3641 4.34833 14.0633 6.05167 15.9266C6.79052 16.7314 7.58497 17.4824 8.42917 18.1758ZM10 11.0416C9.28171 11.0416 8.59283 10.7563 8.08492 10.2484C7.57701 9.74048 7.29167 9.05161 7.29167 8.33331C7.29167 7.61502 7.57701 6.92614 8.08492 6.41823C8.59283 5.91032 9.28171 5.62498 10 5.62498C10.7183 5.62498 11.4072 5.91032 11.9151 6.41823C12.423 6.92614 12.7083 7.61502 12.7083 8.33331C12.7083 9.05161 12.423 9.74048 11.9151 10.2484C11.4072 10.7563 10.7183 11.0416 10 11.0416Z" fill="#BD1A1A"/>
</svg>
