<svg width="78" height="78" viewBox="0 0 78 78" fill="none" xmlns="http://www.w3.org/2000/svg">
<rect width="78" height="78" rx="39" fill="#BD1A1A"/>
<g clip-path="url(#clip0_735_9442)">
<path d="M21.3946 22.8621C20.3571 22.8621 19.362 23.2871 18.6283 24.0437C17.8946 24.8003 17.4824 25.8265 17.4824 26.8965V49.0862H21.3946C21.3946 50.6912 22.0129 52.2305 23.1134 53.3654C24.214 54.5003 25.7066 55.1379 27.263 55.1379C28.8194 55.1379 30.312 54.5003 31.4125 53.3654C32.5131 52.2305 33.1313 50.6912 33.1313 49.0862H44.868C44.868 50.6912 45.4863 52.2305 46.5868 53.3654C47.6873 54.5003 49.18 55.1379 50.7363 55.1379C52.2927 55.1379 53.7854 54.5003 54.8859 53.3654C55.9864 52.2305 56.6047 50.6912 56.6047 49.0862H60.5169V39L54.6486 30.931H48.7802V22.8621M35.0874 26.8965L42.9119 34.9655L35.0874 43.0345V36.9828H23.3508V32.9483H35.0874M48.7802 33.9569H53.6705L57.524 39H48.7802M27.263 46.0603C28.0412 46.0603 28.7875 46.3791 29.3378 46.9466C29.888 47.5141 30.1972 48.2837 30.1972 49.0862C30.1972 49.8887 29.888 50.6583 29.3378 51.2258C28.7875 51.7933 28.0412 52.1121 27.263 52.1121C26.4848 52.1121 25.7385 51.7933 25.1882 51.2258C24.638 50.6583 24.3288 49.8887 24.3288 49.0862C24.3288 48.2837 24.638 47.5141 25.1882 46.9466C25.7385 46.3791 26.4848 46.0603 27.263 46.0603ZM50.7363 46.0603C51.5145 46.0603 52.2608 46.3791 52.8111 46.9466C53.3614 47.5141 53.6705 48.2837 53.6705 49.0862C53.6705 49.8887 53.3614 50.6583 52.8111 51.2258C52.2608 51.7933 51.5145 52.1121 50.7363 52.1121C49.9581 52.1121 49.2118 51.7933 48.6616 51.2258C48.1113 50.6583 47.8022 49.8887 47.8022 49.0862C47.8022 48.2837 48.1113 47.5141 48.6616 46.9466C49.2118 46.3791 49.9581 46.0603 50.7363 46.0603Z" fill="white"/>
</g>
<defs>
<clipPath id="clip0_735_9442">
<rect width="43.0345" height="43.0345" fill="white" transform="translate(17.4824 17.4827)"/>
</clipPath>
</defs>
</svg>
