<svg width="78" height="78" viewBox="0 0 78 78" fill="none" xmlns="http://www.w3.org/2000/svg">
<rect width="78" height="78" rx="39" fill="#BD1A1A"/>
<path fill-rule="evenodd" clip-rule="evenodd" d="M39.5 20C38.2602 20.0133 37.024 20.1414 35.8086 20.3835C35.9329 20.9367 35.9284 21.5101 35.7953 22.0613C35.6623 22.6126 35.4041 23.1278 35.0398 23.5691C34.6755 24.0103 34.2143 24.3664 33.6902 24.6112C33.1661 24.8559 32.5923 24.9831 32.0111 24.9833C31.3581 24.977 30.7173 24.8106 30.1476 24.4996C29.578 24.1886 29.0978 23.7428 28.7514 23.2035C26.584 24.6051 24.7263 26.4152 23.2878 28.527C24.4124 29.2128 25.1017 30.4093 25.1144 31.7022C25.114 32.7074 24.7038 33.6712 23.9742 34.3818C23.2445 35.0924 22.2551 35.4916 21.2235 35.4916C20.9463 35.4775 20.6714 35.4345 20.4036 35.3635C20.1494 36.5602 20.0142 37.778 20 39C20.0148 40.222 20.1499 41.4397 20.4036 42.6365C20.6714 42.5655 20.9463 42.5225 21.2235 42.5084C22.255 42.5084 23.2442 42.9074 23.9739 43.6178C24.7035 44.3282 25.1137 45.2919 25.1144 46.2969C25.108 46.9331 24.9372 47.5575 24.618 48.1126C24.2988 48.6676 23.8413 49.1355 23.2878 49.473C24.7262 51.5851 26.5839 53.3955 28.7514 54.7974C29.0976 54.258 29.5776 53.8122 30.1471 53.501C30.7166 53.1898 31.3573 53.0233 32.0102 53.0167C33.0418 53.0172 34.031 53.4168 34.7603 54.1277C35.4896 54.8387 35.8993 55.8027 35.8993 56.8079C35.8848 57.078 35.8407 57.3458 35.7678 57.6067C36.9958 57.8542 38.2457 57.9867 39.5 58C40.7542 57.9862 42.004 57.8545 43.2322 57.6067C43.1593 57.3458 43.1152 57.078 43.1007 56.8079C43.1007 55.8028 43.5103 54.8389 44.2394 54.128C44.9685 53.4171 45.9574 53.0174 46.9889 53.0167C47.642 53.0231 48.2829 53.1896 48.8525 53.5008C49.4222 53.812 49.9023 54.2579 50.2486 54.7974C52.4164 53.3956 54.2744 51.5852 55.7131 49.473C55.1595 49.1356 54.702 48.668 54.3826 48.1131C54.0632 47.5582 53.8923 46.9339 53.8856 46.2978C53.886 45.2926 54.2962 44.3288 55.0258 43.6182C55.7555 42.9076 56.7449 42.5084 57.7765 42.5084C58.0546 42.5225 58.3279 42.5652 58.5964 42.6365C58.8503 41.44 58.9864 40.2222 59 39C58.998 37.7777 58.875 36.5584 58.6327 35.3591C58.3532 35.4341 58.0661 35.4786 57.7765 35.4916C56.745 35.4916 55.7558 35.0926 55.0261 34.3822C54.2965 33.6718 53.8863 32.7081 53.8856 31.7031C53.8928 31.06 54.0679 30.4293 54.3942 29.8703C54.7206 29.3112 55.1876 28.8423 55.7512 28.5076C54.3093 26.3873 52.4453 24.5707 50.2694 23.1655C49.9259 23.7147 49.4446 24.1697 48.8709 24.4877C48.2972 24.8057 47.6498 24.9762 46.9898 24.9833C45.9582 24.9828 44.969 24.5832 44.2397 23.8723C43.5104 23.1613 43.1007 22.1973 43.1007 21.1921C43.1141 20.91 43.1597 20.6302 43.2367 20.3579C42.0059 20.1218 40.7545 20.0019 39.5 20ZM44.9013 35.647L48.7995 31.8488C49.5006 32.9622 49.7974 34.2732 49.6405 35.5705C49.4835 36.8678 48.8828 38.0758 47.9352 38.9998C47.1405 39.7721 46.1384 40.3103 45.0439 40.5528C43.9495 40.7952 42.8071 40.7321 41.7478 40.3705L33.7591 48.1543C32.7279 49.1591 31.0817 49.1724 30.0677 48.1852C29.0537 47.1964 29.0673 45.5924 30.0977 44.5885L38.0881 36.8029C37.7174 35.7711 37.6528 34.6583 37.9016 33.5922C38.1504 32.5262 38.7026 31.5501 39.4949 30.7759C40.4438 29.8577 41.6818 29.2767 43.0102 29.126C44.3386 28.9754 45.6805 29.2639 46.8205 29.9452L42.935 33.7311C42.8738 33.7905 42.8251 33.8612 42.792 33.939C42.7588 34.0168 42.7417 34.1002 42.7417 34.1844C42.7417 34.2687 42.7588 34.3521 42.792 34.4299C42.8251 34.5077 42.8738 34.5783 42.935 34.6378L43.9708 35.647C44.0318 35.7067 44.1043 35.7541 44.1842 35.7864C44.264 35.8187 44.3496 35.8353 44.4361 35.8353C44.5225 35.8353 44.6081 35.8187 44.688 35.7864C44.7678 35.7541 44.8403 35.7067 44.9013 35.647Z" fill="white"/>
</svg>
