<svg width="58" height="58" viewBox="0 0 58 58" fill="none" xmlns="http://www.w3.org/2000/svg">
<g clip-path="url(#clip0_993_183)">
<rect width="58" height="58" rx="16" fill="white"/>
<path fill-rule="evenodd" clip-rule="evenodd" d="M29.0536 13.8975H23.9844V24.0583H29.0536C31.849 24.0583 34.1253 21.7771 34.1253 18.9792C34.1253 16.1762 31.849 13.8975 29.0536 13.8975Z" fill="#BD1A1A"/>
<path fill-rule="evenodd" clip-rule="evenodd" d="M29.0558 29.0351H23.9865V34.1143H19.0197V8.92303H29.0558C34.5892 8.92303 39.0944 13.4332 39.0944 18.9791C39.0944 24.525 34.5892 29.0351 29.0558 29.0351ZM39.0944 49.2521C39.0944 46.2345 37.754 43.5289 35.645 41.6845C37.754 39.84 39.0944 37.1344 39.0944 34.1143C39.0944 31.7108 38.2457 29.5019 36.8355 27.7722C35.5501 28.9128 34.0226 29.7764 32.3304 30.2706C33.4211 31.2016 34.1275 32.5694 34.1275 34.1143C34.1275 36.9173 31.8537 39.1935 29.0583 39.1935H23.9865V35.6793H19.0197V49.0424H23.9865V44.1704H29.0558C31.8512 44.1704 34.1275 46.4517 34.1275 49.2521H39.0944ZM-0.101562 -0.0722656V58.2474H58.2181V-0.0722656H-0.101562Z" fill="#BD1A1A"/>
</g>
<defs>
<clipPath id="clip0_993_183">
<rect width="58" height="58" rx="16" fill="white"/>
</clipPath>
</defs>
</svg>
