<svg width="120" height="120" viewBox="0 0 120 120" fill="none" xmlns="http://www.w3.org/2000/svg">
<g clip-path="url(#clip0_851_13056)">
<rect width="120" height="120" rx="33.1034" fill="white"/>
<path fill-rule="evenodd" clip-rule="evenodd" d="M60.1169 28.751H49.6289V49.7735H60.1169C65.9006 49.7735 70.6101 45.0536 70.6101 39.2648C70.6101 33.4657 65.9006 28.751 60.1169 28.751Z" fill="#BD1A1A"/>
<path fill-rule="evenodd" clip-rule="evenodd" d="M60.1224 60.0718H49.6343V70.5805H39.358V18.4606H60.1224C71.5709 18.4606 80.8919 27.7919 80.8919 39.2662C80.8919 50.7405 71.5709 60.0718 60.1224 60.0718ZM80.8919 101.9C80.8919 95.6567 78.1188 90.059 73.7553 86.2428C78.1188 82.4267 80.8919 76.8289 80.8919 70.5805C80.8919 65.6076 79.1361 61.0375 76.2185 57.4589C73.559 59.8188 70.3987 61.6055 66.8975 62.628C69.1542 64.5542 70.6156 67.384 70.6156 70.5805C70.6156 76.3796 65.9112 81.0892 60.1275 81.0892H49.6343V73.8183H39.358V101.466H49.6343V91.3862H60.1224C65.906 91.3862 70.6156 96.106 70.6156 101.9H80.8919ZM-0.203125 -0.150391V120.511H120.458V-0.150391H-0.203125Z" fill="#BD1A1A"/>
</g>
<defs>
<clipPath id="clip0_851_13056">
<rect width="120" height="120" rx="33.1034" fill="white"/>
</clipPath>
</defs>
</svg>
