<svg width="42" height="42" viewBox="0 0 42 42" fill="none" xmlns="http://www.w3.org/2000/svg">
<path fill-rule="evenodd" clip-rule="evenodd" d="M21.5 2C20.2602 2.01326 19.024 2.1414 17.8086 2.38353C17.9329 2.93674 17.9284 3.51006 17.7953 4.06133C17.6623 4.6126 17.4041 5.12781 17.0398 5.56907C16.6755 6.01033 16.2143 6.36642 15.6902 6.61116C15.1661 6.8559 14.5923 6.98306 14.0111 6.9833C13.3581 6.97698 12.7173 6.81064 12.1476 6.49961C11.578 6.18857 11.0978 5.74284 10.7514 5.20349C8.58401 6.60515 6.72634 8.41519 5.28779 10.527C6.41244 11.2128 7.10174 12.4093 7.11444 13.7022C7.11396 14.7074 6.70381 15.6712 5.97417 16.3818C5.24453 17.0924 4.25514 17.4916 3.22351 17.4916C2.94631 17.4775 2.67145 17.4345 2.4036 17.3635C2.14936 18.5602 2.01419 19.778 2 21C2.01476 22.222 2.14991 23.4397 2.4036 24.6365C2.67145 24.5655 2.94631 24.5225 3.22351 24.5084C4.25498 24.5084 5.24424 24.9074 5.97385 25.6178C6.70347 26.3282 7.11372 27.2919 7.11444 28.2969C7.10796 28.9331 6.93724 29.5575 6.61802 30.1126C6.29879 30.6676 5.84134 31.1355 5.28779 31.473C6.72624 33.5851 8.58392 35.3955 10.7514 36.7974C11.0976 36.258 11.5776 35.8122 12.1471 35.501C12.7166 35.1898 13.3573 35.0233 14.0102 35.0167C15.0418 35.0172 16.031 35.4168 16.7603 36.1277C17.4896 36.8387 17.8993 37.8027 17.8993 38.8079C17.8848 39.078 17.8407 39.3458 17.7678 39.6067C18.9958 39.8542 20.2457 39.9867 21.5 40C22.7542 39.9862 24.004 39.8545 25.2322 39.6067C25.1593 39.3458 25.1152 39.078 25.1007 38.8079C25.1007 37.8028 25.5103 36.8389 26.2394 36.128C26.9685 35.4171 27.9574 35.0174 28.9889 35.0167C29.642 35.0231 30.2829 35.1896 30.8525 35.5008C31.4222 35.812 31.9023 36.2579 32.2486 36.7974C34.4164 35.3956 36.2744 33.5852 37.7131 31.473C37.1595 31.1356 36.702 30.668 36.3826 30.1131C36.0632 29.5582 35.8923 28.9339 35.8856 28.2978C35.886 27.2926 36.2962 26.3288 37.0258 25.6182C37.7555 24.9076 38.7449 24.5084 39.7765 24.5084C40.0546 24.5225 40.3279 24.5652 40.5964 24.6365C40.8503 23.44 40.9864 22.2222 41 21C40.998 19.7777 40.875 18.5584 40.6327 17.3591C40.3532 17.4341 40.0661 17.4786 39.7765 17.4916C38.745 17.4916 37.7558 17.0926 37.0261 16.3822C36.2965 15.6718 35.8863 14.7081 35.8856 13.7031C35.8928 13.06 36.0679 12.4293 36.3942 11.8703C36.7206 11.3112 37.1876 10.8423 37.7512 10.5076C36.3093 8.38733 34.4453 6.57073 32.2694 5.16549C31.9259 5.71466 31.4446 6.16965 30.8709 6.48766C30.2972 6.80566 29.6498 6.97623 28.9898 6.9833C27.9582 6.98283 26.969 6.5832 26.2397 5.87227C25.5104 5.16134 25.1007 4.19731 25.1007 3.19214C25.1141 2.91 25.1597 2.63019 25.2367 2.35791C24.0059 2.12177 22.7545 2.00191 21.5 2ZM26.9013 17.647L30.7995 13.8488C31.5006 14.9622 31.7974 16.2732 31.6405 17.5705C31.4835 18.8678 30.8828 20.0758 29.9352 20.9998C29.1405 21.7721 28.1384 22.3103 27.0439 22.5528C25.9495 22.7952 24.8071 22.7321 23.7478 22.3705L15.1851 30.7283L11.5777 27.1331L20.0881 18.8029C19.7174 17.7711 19.6528 16.6583 19.9016 15.5922C20.1504 14.5262 20.7026 13.5501 21.4949 12.7759C22.4438 11.8577 23.6818 11.2767 25.0102 11.126C26.3386 10.9754 27.6805 11.2639 28.8205 11.9452L24.935 15.7311C24.8738 15.7905 24.8251 15.8612 24.792 15.939C24.7588 16.0168 24.7417 16.1002 24.7417 16.1844C24.7417 16.2687 24.7588 16.3521 24.792 16.4299C24.8251 16.5077 24.8738 16.5783 24.935 16.6378L25.9708 17.647C26.0318 17.7067 26.1043 17.7541 26.1842 17.7864C26.264 17.8187 26.3496 17.8353 26.4361 17.8353C26.5225 17.8353 26.6081 17.8187 26.688 17.7864C26.7678 17.7541 26.8403 17.7067 26.9013 17.647Z" fill="white"/>
</svg>
