<svg width="42" height="42" viewBox="0 0 42 42" fill="none" xmlns="http://www.w3.org/2000/svg">
<path fill-rule="evenodd" clip-rule="evenodd" d="M4.81228 4.81228C3.6519 5.97266 3 7.54647 3 9.1875V32.8125C3 33.6251 3.16004 34.4297 3.471 35.1804C3.78195 35.9311 4.23771 36.6132 4.81228 37.1877C5.38684 37.7623 6.06894 38.2181 6.81965 38.529C7.57035 38.84 8.37495 39 9.1875 39H32.8125C33.6251 39 34.4297 38.84 35.1804 38.529C35.9311 38.2181 36.6132 37.7623 37.1877 37.1877C37.7623 36.6132 38.2181 35.9311 38.529 35.1804C38.84 34.4297 39 33.6251 39 32.8125V9.1875C39 7.54647 38.3481 5.97266 37.1877 4.81228C36.0273 3.6519 34.4535 3 32.8125 3H9.1875C7.54647 3 5.97266 3.6519 4.81228 4.81228ZM9.22366 22.9747H12.3094L12.3094 27.8849L17.7335 22.6115L19.9152 24.7325L14.4891 30.007H19.4973V33.007H9.22366L9.22366 22.9747ZM29.7308 19.0963H32.8165V9.06409H22.5429V12.0641H27.5511L22.125 17.3385L24.3067 19.4596L29.7308 14.1862V19.0963Z" fill="white"/>
</svg>
