<svg width="80" height="80" viewBox="0 0 80 80" fill="none" xmlns="http://www.w3.org/2000/svg">
<rect width="80" height="80" rx="40" fill="#BD1A1A"/>
<path fill-rule="evenodd" clip-rule="evenodd" d="M54.0066 57.785C53.2981 58.4935 52.337 58.8916 51.335 58.8916H28.665C27.663 58.8916 26.7019 58.4935 25.9934 57.785C25.2848 57.0764 24.8867 56.1154 24.8867 55.1133V24.8867C24.8867 23.8846 25.2848 22.9236 25.9934 22.215C26.7019 21.5065 27.663 21.1084 28.665 21.1084H51.335C52.337 21.1084 53.2981 21.5065 54.0066 22.215C54.7152 22.9236 55.1133 23.8846 55.1133 24.8867V55.1133C55.1133 56.1154 54.7152 57.0764 54.0066 57.785ZM33.9375 49.3932H30.9375V52.3932H33.9375V49.3932ZM30.9375 43.4577H33.9375V46.4577H30.9375V43.4577ZM33.9375 37.4957H30.9375V40.4957H33.9375V37.4957ZM38.5 40.4957V37.4957H41.5V40.4957H38.5ZM41.5 46.4577V43.4577H38.5V46.4577H41.5ZM38.5 52.3932V49.3932H41.5V52.3932H38.5ZM49.0625 43.4577H46.0625V52.3932H49.0625V43.4577ZM46.0625 37.4957H49.0625V40.4957H46.0625V37.4957ZM49.0625 26.8785H30.9375V33.1428H40H49.0625V26.8785Z" fill="white"/>
</svg>
