<svg width="55" height="20" viewBox="0 0 55 20" fill="none" xmlns="http://www.w3.org/2000/svg">
<path d="M8.58691 1.25C10.8771 1.25003 12.956 2.18453 14.4648 3.69336C15.9736 5.20221 16.9082 7.28112 16.9082 9.57129C16.9082 11.8615 15.9737 13.9404 14.4648 15.4492C12.956 16.958 10.8771 17.8925 8.58691 17.8926H1.28516C0.647514 17.8926 0.265661 17.5107 0.265625 16.873V2.26953C0.265625 1.63186 0.647485 1.25 1.28516 1.25H8.58691ZM26.0391 1.66211C26.3137 1.11435 27.1723 1.11445 27.4424 1.65332L34.957 16.6084C35.2401 17.1652 34.9433 17.8926 34.2881 17.8926H19.2061C18.5907 17.8926 18.2539 17.1651 18.5059 16.6621L26.0391 1.66211ZM48.5049 1.25C51.0632 1.25 53.1377 3.34308 53.1377 5.92969C53.1376 6.78724 52.9065 7.59567 52.5068 8.28711C53.8526 9.24362 54.7324 10.8241 54.7324 12.6113C54.7324 15.5258 52.3958 17.8926 49.5088 17.8926H39.0977C38.4672 17.8924 38.0899 17.5105 38.0898 16.873V2.26953C38.0898 1.632 38.4672 1.25017 39.0977 1.25H48.5049Z" fill="#021530" fill-opacity="0.3"/>
</svg>
