<svg width="32" height="32" viewBox="0 0 32 32" fill="none" xmlns="http://www.w3.org/2000/svg">
<rect width="32" height="32" rx="8" fill="#BD1A1A"/>
<path d="M17.6916 16H17.6662V22.5664C17.6995 22.8164 17.6167 23.0838 17.425 23.2588C17.348 23.3359 17.2562 23.3967 17.1555 23.4385C17.0547 23.4803 16.9463 23.502 16.8371 23.502C16.7281 23.5019 16.6204 23.4802 16.5197 23.4385C16.4191 23.3967 16.3272 23.3358 16.2502 23.2588L14.5744 21.583C14.4838 21.4942 14.4151 21.3854 14.3732 21.2656C14.3313 21.1457 14.3175 21.0177 14.3332 20.8916V16H14.3078L11.3811 12.25H20.6184L17.6916 16ZM21.8332 8.5C22.0165 8.50001 22.1915 8.56694 22.3498 8.68359C22.5227 8.81985 22.6348 9.0188 22.6613 9.2373C22.6879 9.45583 22.6266 9.67592 22.4914 9.84961L21.594 11H10.4055L9.50801 9.84961C9.37286 9.67593 9.31156 9.45578 9.33809 9.2373C9.36465 9.01885 9.47682 8.81985 9.64961 8.68359C9.80787 8.56698 9.98298 8.50007 10.1662 8.5H21.8332Z" fill="white"/>
</svg>
