<svg width="74" height="74" viewBox="0 0 74 74" fill="none" xmlns="http://www.w3.org/2000/svg">
<path fill-rule="evenodd" clip-rule="evenodd" d="M37.0718 37.0439H30.7247V43.4035H24.5058V11.862H37.0718C44.0001 11.862 49.6409 17.509 49.6409 24.4529C49.6409 31.3969 44.0001 37.0439 37.0718 37.0439ZM49.6409 62.3572C49.6409 58.579 47.9627 55.1914 45.322 52.8819C47.9627 50.5725 49.6409 47.1849 49.6409 43.4035C49.6409 40.394 48.5784 37.6283 46.8127 35.4627C45.2033 36.8908 43.2907 37.9721 41.1719 38.5909C42.5376 39.7565 43.422 41.4691 43.422 43.4035C43.422 46.913 40.575 49.7631 37.0749 49.7631H30.7247V45.3629H24.5058V62.0947H30.7247V55.9945H37.0718C40.5719 55.9945 43.422 58.8508 43.422 62.3572H49.6409ZM0.564453 0.599121V73.62H73.5854V0.599121H0.564453Z" fill="#BD1A1A"/>
</svg>
