<svg width="24" height="24" viewBox="0 0 24 24" fill="none" xmlns="http://www.w3.org/2000/svg">
<path d="M19 11.95C19 10 18.321 8.34601 16.963 6.98801C15.605 5.63001 13.9507 4.95068 12 4.95001V2.95001C13.25 2.95001 14.421 3.18768 15.513 3.66301C16.605 4.13835 17.555 4.78001 18.363 5.58801C19.171 6.39601 19.8127 7.34601 20.288 8.43801C20.7633 9.53001 21.0007 10.7007 21 11.95H19ZM15 11.95C15 11.1167 14.7083 10.4083 14.125 9.82501C13.5417 9.24168 12.8333 8.95001 12 8.95001V6.95001C13.3833 6.95001 14.5627 7.43768 15.538 8.41301C16.5133 9.38835 17.0007 10.5673 17 11.95H15ZM19.95 21C17.8667 21 15.8083 20.546 13.775 19.638C11.7417 18.73 9.89167 17.4423 8.225 15.775C6.55833 14.1077 5.271 12.2577 4.363 10.225C3.455 8.19235 3.00067 6.13401 3 4.05001C3 3.75001 3.1 3.50001 3.3 3.30001C3.5 3.10001 3.75 3.00001 4.05 3.00001H8.1C8.33333 3.00001 8.54167 3.07935 8.725 3.23801C8.90833 3.39668 9.01667 3.58401 9.05 3.80001L9.7 7.30001C9.73333 7.56668 9.725 7.79168 9.675 7.97501C9.625 8.15835 9.53333 8.31668 9.4 8.45001L6.975 10.9C7.30833 11.5167 7.704 12.1123 8.162 12.687C8.62 13.2617 9.12433 13.816 9.675 14.35C10.1917 14.8667 10.7333 15.346 11.3 15.788C11.8667 16.23 12.4667 16.634 13.1 17L15.45 14.65C15.6 14.5 15.796 14.3877 16.038 14.313C16.28 14.2383 16.5173 14.2173 16.75 14.25L20.2 14.95C20.4333 15.0167 20.625 15.1377 20.775 15.313C20.925 15.4883 21 15.684 21 15.9V19.95C21 20.25 20.9 20.5 20.7 20.7C20.5 20.9 20.25 21 19.95 21Z" fill="#BD1A1A"/>
</svg>
