<svg width="42" height="42" viewBox="0 0 42 42" fill="none" xmlns="http://www.w3.org/2000/svg">
<path fill-rule="evenodd" clip-rule="evenodd" d="M35.0066 38.785C34.2981 39.4935 33.337 39.8916 32.335 39.8916H9.66504C8.66297 39.8916 7.70194 39.4935 6.99336 38.785C6.28479 38.0764 5.88672 37.1154 5.88672 36.1133V5.88672C5.88672 4.88465 6.28479 3.92362 6.99336 3.21504C7.70194 2.50647 8.66297 2.1084 9.66504 2.1084H32.335C33.337 2.1084 34.2981 2.50647 35.0066 3.21504C35.7152 3.92362 36.1133 4.88465 36.1133 5.88672V36.1133C36.1133 37.1154 35.7152 38.0764 35.0066 38.785ZM14.9375 30.3932H11.9375V33.3932H14.9375V30.3932ZM11.9375 24.4577H14.9375V27.4577H11.9375V24.4577ZM14.9375 18.4957H11.9375V21.4957H14.9375V18.4957ZM19.5 21.4957V18.4957H22.5V21.4957H19.5ZM22.5 27.4577V24.4577H19.5V27.4577H22.5ZM19.5 33.3932V30.3932H22.5V33.3932H19.5ZM30.0625 24.4577H27.0625V33.3932H30.0625V24.4577ZM27.0625 18.4957H30.0625V21.4957H27.0625V18.4957ZM30.0625 7.87854H11.9375V14.1428H21H30.0625V7.87854Z" fill="white"/>
</svg>
