<svg width="42" height="42" viewBox="0 0 42 42" fill="none" xmlns="http://www.w3.org/2000/svg">
<path fill-rule="evenodd" clip-rule="evenodd" d="M1.11832 6.40339C1.83437 5.66496 2.80554 5.25012 3.81818 5.25012H30.5455V13.1251H36.2727L42 21.0001V30.8439H38.1818C38.1818 32.4103 37.5784 33.9126 36.5043 35.0202C35.4303 36.1279 33.9735 36.7501 32.4545 36.7501C30.9356 36.7501 29.4788 36.1279 28.4048 35.0202C27.3307 33.9126 26.7273 32.4103 26.7273 30.8439H15.2727C15.2727 32.4103 14.6693 33.9126 13.5952 35.0202C12.5212 36.1279 11.0644 36.7501 9.54545 36.7501C8.02649 36.7501 6.56973 36.1279 5.49566 35.0202C4.42159 33.9126 3.81818 32.4103 3.81818 30.8439H0V9.18762C0 8.14333 0.402272 7.14181 1.11832 6.40339ZM19.2373 15.587H17.1818H5.72727V18.5065H17.1818H19.237L15.0054 22.7381L17.0757 24.8084L24.8372 17.0462L17.0757 9.28472L15.0054 11.355L19.2373 15.587ZM34.6865 16.0782H30.5455V21.0001H38.4474L34.6865 16.0782ZM11.5704 28.7557C11.0333 28.2019 10.3049 27.8907 9.54545 27.8907C8.78597 27.8907 8.05759 28.2019 7.52056 28.7557C6.98352 29.3095 6.68182 30.0607 6.68182 30.8439C6.68182 31.6271 6.98352 32.3782 7.52056 32.932C8.05759 33.4859 8.78597 33.797 9.54545 33.797C10.3049 33.797 11.0333 33.4859 11.5704 32.932C12.1074 32.3782 12.4091 31.6271 12.4091 30.8439C12.4091 30.0607 12.1074 29.3095 11.5704 28.7557ZM34.4794 28.7557C33.9424 28.2019 33.214 27.8907 32.4545 27.8907C31.6951 27.8907 30.9667 28.2019 30.4296 28.7557C29.8926 29.3095 29.5909 30.0607 29.5909 30.8439C29.5909 31.6271 29.8926 32.3782 30.4296 32.932C30.9667 33.4859 31.6951 33.797 32.4545 33.797C33.214 33.797 33.9424 33.4859 34.4794 32.932C35.0165 32.3782 35.3182 31.6271 35.3182 30.8439C35.3182 30.0607 35.0165 29.3095 34.4794 28.7557Z" fill="white"/>
</svg>
