<svg width="42" height="42" viewBox="0 0 42 42" fill="none" xmlns="http://www.w3.org/2000/svg">
<g clip-path="url(#clip0_842_5395)">
<path d="M10.2181 21C10.2181 23.7004 11.3559 26.2902 13.3813 28.1996C15.4067 30.1091 18.1537 31.1818 21.0181 31.1818C23.8824 31.1818 26.6294 30.1091 28.6548 28.1996C30.6802 26.2902 31.8181 23.7004 31.8181 21M19.9581 3C19.1481 3 18.6081 3.53455 18.6081 4.27273V11.9091H15.6181V5.54545C15.6181 5.54545 9.54308 7.73454 9.54308 15.0909C9.54308 15.0909 7.51562 15.191 7.51562 18.0164H34.5156C34.3806 15.191 32.4931 15.0909 32.4931 15.0909C32.4931 7.73454 26.4181 5.54545 26.4181 5.54545V11.9091H23.4594V4.27273C23.4594 3.53455 22.9464 3 22.1094 3H19.9581Z" fill="white"/>
<path d="M32.6829 38.6863C35.7772 41.6869 37.5156 45.7565 37.5156 50L4.51562 50C4.51563 45.7565 6.25401 41.6869 9.34836 38.6863C12.4427 35.6857 16.6396 34 21.0156 34C25.3917 34 29.5885 35.6857 32.6829 38.6863Z" fill="white"/>
</g>
<defs>
<clipPath id="clip0_842_5395">
<rect width="42" height="42" fill="white"/>
</clipPath>
</defs>
</svg>
