<svg width="42" height="42" viewBox="0 0 42 42" fill="none" xmlns="http://www.w3.org/2000/svg">
<path d="M38.6747 33.4287L27.7167 22.4995L24.0067 26.2095L34.8271 37.0769L38.6747 33.4287ZM30.888 17.5C34.2655 17.5 37.013 14.7525 37.013 11.375C37.013 10.36 36.733 9.41502 36.2955 8.57502L36.0819 8.26931L31.3242 13.0312L29.2031 10.9177L33.9795 6.12567L33.688 5.96752C32.848 5.53002 31.903 5.25002 30.888 5.25002C27.5105 5.25002 24.763 7.99752 24.763 11.375C24.763 12.0925 24.903 12.775 25.1305 13.405L21.893 16.6425L18.778 13.5275C18.9402 13.3656 19.0689 13.1733 19.1567 12.9616C19.2446 12.7499 19.2898 12.523 19.2898 12.2938C19.2898 12.0646 19.2446 11.8376 19.1567 11.6259C19.0689 11.4142 18.9402 11.2219 18.778 11.06L17.5355 9.81752L21.2455 6.10752C20.2611 5.12437 18.9267 4.57214 17.5355 4.57214C16.1442 4.57214 14.8099 5.12437 13.8255 6.10752L8.89049 11.06C8.72826 11.2219 8.59955 11.4142 8.51173 11.6259C8.42392 11.8376 8.37871 12.0646 8.37871 12.2938C8.37871 12.523 8.42392 12.7499 8.51173 12.9616C8.59955 13.1733 8.72826 13.3656 8.89049 13.5275L10.133 14.77H5.68799C5.35549 14.77 5.04049 14.8925 4.81299 15.1375C4.69658 15.2516 4.6041 15.3877 4.54097 15.538C4.47783 15.6882 4.44531 15.8495 4.44531 16.0125C4.44531 16.1755 4.47783 16.3368 4.54097 16.4871C4.6041 16.6373 4.69658 16.7735 4.81299 16.8875L9.25799 21.3325C9.37205 21.4489 9.50819 21.5414 9.65844 21.6045C9.80868 21.6677 9.97002 21.7002 10.133 21.7002C10.296 21.7002 10.4573 21.6677 10.6075 21.6045C10.7578 21.5414 10.8939 21.4489 11.008 21.3325C11.2355 21.105 11.3755 20.79 11.3755 20.4575V16.0125L12.6005 17.2375C13.283 17.92 14.3855 17.92 15.068 17.2375L18.183 20.3525L5.2046 33.3483L8.9461 36.9803L28.8405 17.1325C29.488 17.36 30.1705 17.5 30.888 17.5Z" fill="white"/>
</svg>
