<svg width="42" height="42" viewBox="0 0 42 42" fill="none" xmlns="http://www.w3.org/2000/svg">
<path fill-rule="evenodd" clip-rule="evenodd" d="M21.3907 3.08072L36.5018 9.91054C36.6581 9.97982 36.7914 10.0933 36.886 10.2375C36.9806 10.3816 37.0323 10.5504 37.0352 10.7236V15.5659C37.0352 24.4555 31.8085 35.2242 21.3552 38.9463C21.1476 39.0179 20.9227 39.0179 20.7152 38.9463C10.2618 35.2242 5.03516 24.4555 5.03516 15.5659V10.7236C5.03798 10.5504 5.08976 10.3816 5.18432 10.2375C5.27888 10.0933 5.41224 9.97982 5.56849 9.91054L20.6796 3.08072C20.7908 3.02756 20.9122 3 21.0352 3C21.1581 3 21.2795 3.02756 21.3907 3.08072ZM14.0859 19.4394L11.957 21.5668L20 29.6211L31.5625 18.0586L29.443 15.9359L20.0048 25.3746L14.0859 19.4394Z" fill="white"/>
</svg>
