<svg width="42" height="42" viewBox="0 0 42 42" fill="none" xmlns="http://www.w3.org/2000/svg">
<path d="M16.1891 38.4998L15.4891 32.8998C15.1099 32.7539 14.7529 32.5789 14.4181 32.3748C14.0832 32.1706 13.7548 31.9518 13.4328 31.7185L8.22656 33.906L3.41406 25.5935L7.92031 22.181C7.89115 21.9768 7.87656 21.7803 7.87656 21.5913V20.41C7.87656 20.2198 7.89115 20.0227 7.92031 19.8185L3.41406 16.406L8.22656 8.09351L13.4328 10.281C13.7536 10.0477 14.0891 9.82892 14.4391 9.62476C14.7891 9.42059 15.1391 9.24559 15.4891 9.09976L16.1891 3.49976H25.8141L26.5141 9.09976C26.8932 9.24559 27.2508 9.42059 27.5868 9.62476C27.9228 9.82892 28.2506 10.0477 28.5703 10.281L33.7766 8.09351L38.5891 16.406L34.0828 19.8185C34.112 20.0227 34.1266 20.2198 34.1266 20.41V21.5895C34.1266 21.7797 34.0974 21.9768 34.0391 22.181L38.5453 25.5935L33.7328 33.906L28.5703 31.7185C28.2495 31.9518 27.9141 32.1706 27.5641 32.3748C27.2141 32.5789 26.8641 32.7539 26.5141 32.8998L25.8141 38.4998H16.1891ZM21.0891 27.1248C22.7807 27.1248 24.2245 26.5268 25.4203 25.331C26.6161 24.1352 27.2141 22.6914 27.2141 20.9998C27.2141 19.3081 26.6161 17.8643 25.4203 16.6685C24.2245 15.4727 22.7807 14.8748 21.0891 14.8748C19.3682 14.8748 17.9169 15.4727 16.7351 16.6685C15.5532 17.8643 14.9629 19.3081 14.9641 20.9998C14.9652 22.6914 15.5561 24.1352 16.7368 25.331C17.9175 26.5268 19.3682 27.1248 21.0891 27.1248Z" fill="white"/>
</svg>
