<svg width="78" height="78" viewBox="0 0 78 78" fill="none" xmlns="http://www.w3.org/2000/svg">
<rect width="78" height="78" rx="39" fill="#BD1A1A"/>
<path fill-rule="evenodd" clip-rule="evenodd" d="M45.0132 30.5C45.2456 29.8359 45.3784 29.1188 45.3784 28.375C45.3784 24.8555 42.5229 22 39.0033 22C35.4837 22 32.6282 24.8555 32.6282 28.375C32.6282 29.1188 32.7544 29.8359 32.9935 30.5H29.9719C28.511 30.5 27.236 31.4961 26.8774 32.9172L22.0961 52.0422C21.857 52.9918 22.0695 54.0012 22.6738 54.7781C23.2781 55.5551 24.2078 56 25.1906 56H52.816C53.7988 56 54.7219 55.5484 55.3262 54.7715C55.9305 53.9945 56.143 52.9918 55.9039 52.0355L51.1226 32.9105C50.7707 31.4961 49.4956 30.5 48.0347 30.5H45.0132ZM38.9644 31.7101C40.8174 31.7101 42.3195 30.208 42.3195 28.3551C42.3195 26.5021 40.8174 25 38.9644 25C37.1115 25 35.6094 26.5021 35.6094 28.3551C35.6094 30.208 37.1115 31.7101 38.9644 31.7101ZM32.7539 42.4111L35.665 38.7559H39.4883L34.8535 44.5527L34.5049 44.9863L39.4883 51.2188H35.665L32.7539 47.5625V51.2188H29.793V38.7559H32.7539V42.4111ZM43.3467 41.6689H48.4131V38.7275L42.5039 38.7285C41.0236 38.7432 39.8281 39.9469 39.8281 41.4307C39.8281 41.4376 39.8286 41.4444 39.8291 41.4513C39.8295 41.4575 39.83 41.4636 39.8301 41.4697H39.8281V48.6748H39.834C39.893 50.0683 41.0037 51.1855 42.3945 51.2549V51.2617H46.5352V51.2588C47.962 51.2345 49.116 50.107 49.1846 48.6914H49.1914V45.999H49.1865C49.1314 44.5547 47.9461 43.4004 46.4883 43.4004H44.8447V46.3564H45.7695V46.3779C46.009 46.438 46.191 46.6329 46.2354 46.8779V47.8398H46.2139C46.1538 48.0794 45.959 48.2614 45.7139 48.3057H43.25V48.2842C42.9971 48.2207 42.8065 48.0077 42.7764 47.7432H42.7695V44.1211C42.7719 44.1209 42.7744 44.121 42.7768 44.1211C42.7793 44.1212 42.7817 44.1213 42.7842 44.1211V42.1494H42.8057C42.8691 41.8965 43.0822 41.7059 43.3467 41.6758V41.6689Z" fill="white"/>
</svg>
