<svg width="78" height="78" viewBox="0 0 78 78" fill="none" xmlns="http://www.w3.org/2000/svg">
<rect width="78" height="78" rx="39" fill="#BD1A1A"/>
<g clip-path="url(#clip0_746_7435)">
<path d="M27.7 38.8182C27.7 41.5186 28.8379 44.1084 30.8632 46.0178C32.8886 47.9273 35.6357 49 38.5 49C41.3643 49 44.1114 47.9273 46.1368 46.0178C48.1621 44.1084 49.3 41.5186 49.3 38.8182M37.15 21C36.34 21 35.8 21.5345 35.8 22.2727V29.9091H33.1V23.5455C33.1 23.5455 27.025 25.7345 27.025 33.0909C27.025 33.0909 25 33.4473 25 36.2727H52C51.865 33.4473 49.975 33.0909 49.975 33.0909C49.975 25.7345 43.9 23.5455 43.9 23.5455V29.9091H41.2V22.2727C41.2 21.5345 40.687 21 39.85 21H37.15Z" fill="white"/>
<path d="M50.1673 56.6863C53.2616 59.6869 55 63.7565 55 68L22 68C22 63.7565 23.7384 59.6869 26.8327 56.6863C29.9271 53.6857 34.1239 52 38.5 52C42.8761 52 47.0729 53.6857 50.1673 56.6863Z" fill="white"/>
</g>
<defs>
<clipPath id="clip0_746_7435">
<rect width="42" height="42" fill="white" transform="translate(17.4829 18)"/>
</clipPath>
</defs>
</svg>
