<svg width="78" height="78" viewBox="0 0 78 78" fill="none" xmlns="http://www.w3.org/2000/svg">
<rect width="78" height="78" rx="39" fill="#BD1A1A"/>
<path d="M54.2154 49.4824L45.5704 40.8374L41.8604 44.5474L50.5054 53.1924C51.5379 54.2249 53.2004 54.2249 54.2154 53.1924C55.2304 52.1599 55.2304 50.4974 54.2154 49.4824ZM48.3704 35.4999C51.7479 35.4999 54.4954 32.7524 54.4954 29.3749C54.4954 28.3599 54.2154 27.4149 53.7779 26.5749L49.0529 31.2999L46.4454 28.6924L51.1704 23.9674C50.3304 23.5299 49.3854 23.2499 48.3704 23.2499C44.9929 23.2499 42.2454 25.9974 42.2454 29.3749C42.2454 30.0924 42.3854 30.7749 42.6129 31.4049L39.3754 34.6424L36.2604 31.5274C36.4226 31.3655 36.5514 31.1732 36.6392 30.9615C36.727 30.7498 36.7722 30.5228 36.7722 30.2937C36.7722 30.0645 36.727 29.8375 36.6392 29.6258C36.5514 29.4141 36.4226 29.2218 36.2604 29.0599L35.0179 27.8174L38.7279 24.1074C37.7435 23.1242 36.4092 22.572 35.0179 22.572C33.6267 22.572 32.2923 23.1242 31.3079 24.1074L26.3729 29.0599C26.2107 29.2218 26.082 29.4141 25.9942 29.6258C25.9063 29.8375 25.8611 30.0645 25.8611 30.2937C25.8611 30.5228 25.9063 30.7498 25.9942 30.9615C26.082 31.1732 26.2107 31.3655 26.3729 31.5274L27.6154 32.7699H23.1704C22.8379 32.7699 22.5229 32.8924 22.2954 33.1374C22.179 33.2515 22.0865 33.3876 22.0234 33.5378C21.9603 33.6881 21.9277 33.8494 21.9277 34.0124C21.9277 34.1754 21.9603 34.3367 22.0234 34.487C22.0865 34.6372 22.179 34.7733 22.2954 34.8874L26.7404 39.3324C26.8545 39.4488 26.9906 39.5413 27.1409 39.6044C27.2911 39.6676 27.4524 39.7001 27.6154 39.7001C27.7784 39.7001 27.9397 39.6676 28.09 39.6044C28.2402 39.5413 28.3764 39.4488 28.4904 39.3324C28.7179 39.1049 28.8579 38.7899 28.8579 38.4574V34.0124L30.0829 35.2374C30.7654 35.9199 31.8679 35.9199 32.5504 35.2374L35.6654 38.3524L24.5529 49.4649C24.3074 49.7074 24.1125 49.9963 23.9794 50.3147C23.8464 50.6331 23.7779 50.9748 23.7779 51.3199C23.7779 51.665 23.8464 52.0067 23.9794 52.3251C24.1125 52.6435 24.3074 52.9324 24.5529 53.1749C25.5854 54.2074 27.2479 54.2074 28.2629 53.1749L46.3229 35.1324C46.9704 35.3599 47.6529 35.4999 48.3704 35.4999Z" fill="white"/>
</svg>
