<svg width="78" height="78" viewBox="0 0 78 78" fill="none" xmlns="http://www.w3.org/2000/svg">
<rect width="78" height="78" rx="39" fill="#BD1A1A"/>
<path d="M20.896 27.1875C20.896 25.5465 21.5298 23.9727 22.6579 22.8123C23.7861 21.6519 25.3162 21 26.9116 21H49.8804C51.4758 21 53.0059 21.6519 54.1341 22.8123C55.2622 23.9727 55.896 25.5465 55.896 27.1875V50.8125C55.896 51.6251 55.7404 52.4297 55.4381 53.1804C55.1358 53.9311 54.6927 54.6132 54.1341 55.1877C53.5755 55.7623 52.9123 56.2181 52.1825 56.529C51.4526 56.84 50.6704 57 49.8804 57H26.9116C26.1216 57 25.3394 56.84 24.6095 56.529C23.8797 56.2181 23.2165 55.7623 22.6579 55.1877C22.0993 54.6132 21.6562 53.9311 21.3539 53.1804C21.0516 52.4297 20.896 51.6251 20.896 50.8125V27.1875ZM48.8522 28.245C48.5449 27.9284 48.1278 27.7504 47.6929 27.75H42.2241C41.789 27.75 41.3717 27.9278 41.064 28.2443C40.7563 28.5607 40.5835 28.9899 40.5835 29.4375C40.5835 29.8851 40.7563 30.3143 41.064 30.6307C41.3717 30.9472 41.789 31.125 42.2241 31.125H43.7335L39.971 34.9928C39.8098 35.1472 39.6805 35.3335 39.5909 35.5405C39.5012 35.7475 39.453 35.971 39.4491 36.1976C39.4452 36.4242 39.4857 36.6492 39.5682 36.8593C39.6507 37.0695 39.7736 37.2603 39.9293 37.4206C40.0851 37.5808 40.2707 37.7072 40.475 37.792C40.6793 37.8769 40.8981 37.9186 41.1184 37.9146C41.3387 37.9106 41.5559 37.861 41.7572 37.7688C41.9584 37.6765 42.1395 37.5435 42.2897 37.3778L46.0522 33.51V35.0625C46.0522 35.5101 46.2251 35.9393 46.5328 36.2557C46.8405 36.5722 47.2577 36.75 47.6929 36.75C48.128 36.75 48.5453 36.5722 48.853 36.2557C49.1606 35.9393 49.3335 35.5101 49.3335 35.0625V29.4375C49.3331 28.9901 49.16 28.5612 48.8522 28.245ZM29.0991 50.25H34.5701C35.0052 50.25 35.4225 50.0722 35.7302 49.7557C36.0378 49.4393 36.2107 49.0101 36.2107 48.5625C36.2107 48.1149 36.0378 47.6857 35.7302 47.3693C35.4225 47.0528 35.0052 46.875 34.5701 46.875H33.0607L36.8232 43.005C37.1219 42.6866 37.2871 42.2602 37.2831 41.8178C37.2792 41.3753 37.1065 40.9522 36.8021 40.6394C36.4978 40.3267 36.0862 40.1494 35.656 40.1458C35.2259 40.1422 34.8115 40.3125 34.5022 40.62L30.7397 44.4855V42.933C30.7397 42.4854 30.5669 42.0562 30.2592 41.7398C29.9515 41.4233 29.5342 41.2455 29.0991 41.2455C28.664 41.2455 28.2467 41.4233 27.939 41.7398C27.6313 42.0562 27.4585 42.4854 27.4585 42.933V48.558C27.4585 49.0056 27.6313 49.4348 27.939 49.7512C28.2467 50.0677 28.664 50.2455 29.0991 50.2455" fill="white"/>
</svg>
