<svg width="78" height="78" viewBox="0 0 78 78" fill="none" xmlns="http://www.w3.org/2000/svg">
<rect width="78" height="78" rx="39" fill="#BD1A1A"/>
<path d="M34.0684 56.9307L33.3512 51.1927C32.9627 51.0433 32.5969 50.864 32.2538 50.6548C31.9107 50.4456 31.5742 50.2215 31.2443 49.9824L25.9098 52.2238L20.9788 43.7065L25.596 40.21C25.5661 40.0008 25.5512 39.7994 25.5512 39.6057V38.3954C25.5512 38.2005 25.5661 37.9985 25.596 37.7893L20.9788 34.2927L25.9098 25.7755L31.2443 28.0169C31.573 27.7778 31.9167 27.5537 32.2753 27.3445C32.6339 27.1353 32.9926 26.956 33.3512 26.8065L34.0684 21.0686H43.9305L44.6477 26.8065C45.0362 26.956 45.4026 27.1353 45.7469 27.3445C46.0912 27.5537 46.4271 27.7778 46.7546 28.0169L52.0891 25.7755L57.0201 34.2927L52.4029 37.7893C52.4328 37.9985 52.4477 38.2005 52.4477 38.3954V39.6039C52.4477 39.7988 52.4178 40.0008 52.3581 40.21L56.9753 43.7065L52.0443 52.2238L46.7546 49.9824C46.4259 50.2215 46.0822 50.4456 45.7236 50.6548C45.365 50.864 45.0063 51.0433 44.6477 51.1927L43.9305 56.9307H34.0684ZM39.0891 45.2755C40.8224 45.2755 42.3017 44.6629 43.527 43.4376C44.7523 42.2123 45.365 40.733 45.365 38.9996C45.365 37.2663 44.7523 35.787 43.527 34.5617C42.3017 33.3364 40.8224 32.7238 39.0891 32.7238C37.3259 32.7238 35.8388 33.3364 34.6279 34.5617C33.4169 35.787 32.812 37.2663 32.8132 38.9996C32.8144 40.733 33.4199 42.2123 34.6297 43.4376C35.8394 44.6629 37.3259 45.2755 39.0891 45.2755Z" fill="white"/>
</svg>
