<svg width="24" height="24" viewBox="0 0 24 24" fill="none" xmlns="http://www.w3.org/2000/svg">
<path fill-rule="evenodd" clip-rule="evenodd" d="M12 4.15002C10.809 4.15002 9.42 4.17802 8.066 4.21602L8.011 4.21802C6.633 4.25702 5.521 4.28802 4.645 4.43302C3.732 4.58402 2.974 4.87302 2.368 5.49602C1.76 6.12102 1.495 6.89402 1.37 7.81902C1.25 8.70902 1.25 9.83702 1.25 11.239V12.763C1.25 14.163 1.25 15.291 1.37 16.182C1.494 17.107 1.76 17.88 2.368 18.505C2.974 19.129 3.732 19.417 4.645 19.568C5.521 19.713 6.633 19.744 8.011 19.783L8.066 19.785C9.421 19.823 10.809 19.851 12 19.851C13.191 19.851 14.58 19.823 15.934 19.785L15.989 19.783C17.367 19.744 18.479 19.713 19.355 19.568C20.268 19.417 21.026 19.128 21.632 18.505C22.24 17.88 22.506 17.107 22.63 16.182C22.75 15.292 22.75 14.164 22.75 12.762V11.238C22.75 9.83702 22.75 8.70902 22.63 7.81902C22.506 6.89402 22.24 6.12102 21.632 5.49602C21.026 4.87202 20.268 4.58402 19.355 4.43302C18.479 4.28802 17.367 4.25702 15.988 4.21802L15.934 4.21602C14.623 4.17623 13.3116 4.15423 12 4.15002ZM10.872 14.651C10.758 14.7162 10.6288 14.7502 10.4975 14.7498C10.3661 14.7493 10.2372 14.7144 10.1236 14.6485C10.01 14.5826 9.91571 14.488 9.85014 14.3742C9.78457 14.2604 9.75004 14.1314 9.75 14V10C9.75004 9.86869 9.78457 9.73966 9.85014 9.62586C9.91571 9.51206 10.01 9.41747 10.1236 9.35155C10.2372 9.28564 10.3661 9.25071 10.4975 9.25027C10.6288 9.24983 10.758 9.28388 10.872 9.34902L14.372 11.349C14.4867 11.4146 14.582 11.5094 14.6484 11.6237C14.7147 11.7381 14.7496 11.8679 14.7496 12C14.7496 12.1322 14.7147 12.262 14.6484 12.3763C14.582 12.4906 14.4867 12.5854 14.372 12.651L10.872 14.651Z" fill="white"/>
</svg>
