<svg width="78" height="78" viewBox="0 0 78 78" fill="none" xmlns="http://www.w3.org/2000/svg">
<rect width="78" height="78" rx="39" fill="#BD1A1A"/>
<path d="M34.0691 56.9307L33.3519 51.1927C32.9634 51.0433 32.5976 50.864 32.2545 50.6548C31.9114 50.4456 31.5749 50.2215 31.245 49.9824L25.9105 52.2238L20.9795 43.7065L25.5967 40.21C25.5668 40.0008 25.5519 39.7994 25.5519 39.6057V38.3954C25.5519 38.2005 25.5668 37.9985 25.5967 37.7893L20.9795 34.2927L25.9105 25.7755L31.245 28.0169C31.5737 27.7778 31.9174 27.5537 32.276 27.3445C32.6347 27.1353 32.9933 26.956 33.3519 26.8065L34.0691 21.0686H43.9312L44.6485 26.8065C45.037 26.956 45.4034 27.1353 45.7476 27.3445C46.0919 27.5537 46.4278 27.7778 46.7554 28.0169L52.0898 25.7755L57.0209 34.2927L52.4036 37.7893C52.4335 37.9985 52.4485 38.2005 52.4485 38.3954V39.6039C52.4485 39.7988 52.4186 40.0008 52.3588 40.21L56.976 43.7065L52.045 52.2238L46.7554 49.9824C46.4266 50.2215 46.0829 50.4456 45.7243 50.6548C45.3657 50.864 45.0071 51.0433 44.6485 51.1927L43.9312 56.9307H34.0691ZM39.0898 45.2755C40.8232 45.2755 42.3025 44.6629 43.5278 43.4376C44.7531 42.2123 45.3657 40.733 45.3657 38.9996C45.3657 37.2663 44.7531 35.787 43.5278 34.5617C42.3025 33.3364 40.8232 32.7238 39.0898 32.7238C37.3266 32.7238 35.8395 33.3364 34.6286 34.5617C33.4177 35.787 32.8128 37.2663 32.814 38.9996C32.8152 40.733 33.4206 42.2123 34.6304 43.4376C35.8401 44.6629 37.3266 45.2755 39.0898 45.2755Z" fill="white"/>
</svg>
