<svg width="78" height="78" viewBox="0 0 78 78" fill="none" xmlns="http://www.w3.org/2000/svg">
<rect width="78" height="78" rx="39" fill="#BD1A1A"/>
<path d="M44.4117 39C44.4117 41.9873 41.9901 44.409 39.0027 44.409C36.0154 44.409 33.5938 41.9873 33.5938 39C33.5938 36.0127 36.0154 33.591 39.0027 33.591C41.9901 33.591 44.4117 36.0127 44.4117 39Z" fill="white"/>
<path fill-rule="evenodd" clip-rule="evenodd" d="M49.9174 28.0123C52.4096 30.5045 53.9803 33.77 54.3715 37.2727L54.3945 37.5156H57.9297V40.4883H54.4023L54.3715 40.7273C53.9803 44.23 52.4096 47.4955 49.9174 49.9877C47.4252 52.4799 44.1597 54.0506 40.657 54.4418L40.4204 54.4837V58H37.4394V54.4837L37.2024 54.4418C33.6997 54.0506 30.4342 52.4799 27.942 49.9877C25.4498 47.4955 23.8791 44.23 23.4879 40.7273L23.4609 40.4844H19.9297V37.5039H23.4609L23.4879 37.2727C23.8791 33.77 25.4498 30.5045 27.942 28.0123C30.4342 25.5201 33.6997 23.9494 37.2024 23.5582L37.441 23.5271V20H40.4172V23.5271L40.657 23.5582C44.1597 23.9494 47.4252 25.5201 49.9174 28.0123ZM39.0012 51.4933C45.901 51.4933 51.4945 45.8999 51.4945 39C51.4945 32.1001 45.901 26.5067 39.0012 26.5067C32.1013 26.5067 26.5078 32.1001 26.5078 39C26.5078 45.8999 32.1013 51.4933 39.0012 51.4933ZM44.4117 39C44.4117 41.9873 41.9901 44.409 39.0027 44.409C36.0154 44.409 33.5938 41.9873 33.5938 39C33.5938 36.0127 36.0154 33.591 39.0027 33.591C41.9901 33.591 44.4117 36.0127 44.4117 39Z" fill="white"/>
</svg>
