<svg width="32" height="32" viewBox="0 0 32 32" fill="none" xmlns="http://www.w3.org/2000/svg">
<path d="M18.707 16H18.667V26.5068C18.7202 26.9067 18.5868 27.3333 18.2803 27.6133C18.1569 27.7369 18.0099 27.8354 17.8486 27.9023C17.6874 27.9691 17.5143 28.0029 17.3398 28.0029C17.1653 28.0029 16.9922 27.9692 16.831 27.9023C16.6698 27.8355 16.5237 27.7368 16.4004 27.6133L13.7197 24.9336C13.5744 24.7914 13.4645 24.6167 13.3974 24.4248C13.3305 24.2331 13.3089 24.0287 13.334 23.8271V16H13.2939L8.61033 10H23.3896L18.707 16ZM25.334 4C25.6271 4.00012 25.907 4.10649 26.1601 4.29297C26.4368 4.51098 26.6157 4.83002 26.6582 5.17969C26.7007 5.52946 26.6032 5.8822 26.3867 6.16016L24.9511 8H7.04978L5.61326 6.16016C5.39674 5.8822 5.2993 5.52945 5.34177 5.17969C5.38429 4.83001 5.56314 4.51098 5.83982 4.29297C6.09316 4.1063 6.37364 4 6.66697 4H25.334Z" fill="#BD1A1A"/>
</svg>
