<svg width="78" height="78" viewBox="0 0 78 78" fill="none" xmlns="http://www.w3.org/2000/svg">
<rect width="78" height="78" rx="39" fill="#BD1A1A"/>
<path d="M38.9307 32.0909C35.1134 32.0909 32.0216 35.1827 32.0216 39C32.0216 42.8173 35.1134 45.9091 38.9307 45.9091C42.7479 45.9091 45.8398 42.8173 45.8398 39C45.8398 35.1827 42.7479 32.0909 38.9307 32.0909ZM54.3725 37.2727C53.9812 33.77 52.4106 30.5045 49.9184 28.0123C47.4262 25.5201 44.1606 23.9494 40.6579 23.5582V20H37.2034V23.5582C33.7007 23.9494 30.4351 25.5201 27.943 28.0123C25.4508 30.5045 23.8801 33.77 23.4888 37.2727H19.9307V40.7273H23.4888C23.8801 44.23 25.4508 47.4955 27.943 49.9877C30.4351 52.4799 33.7007 54.0506 37.2034 54.4418V58H40.6579V54.4418C44.1606 54.0506 47.4262 52.4799 49.9184 49.9877C52.4106 47.4955 53.9812 44.23 54.3725 40.7273H57.9307V37.2727H54.3725ZM38.9307 51.0909C32.2461 51.0909 26.8398 45.6845 26.8398 39C26.8398 32.3155 32.2461 26.9091 38.9307 26.9091C45.6152 26.9091 51.0216 32.3155 51.0216 39C51.0216 45.6845 45.6152 51.0909 38.9307 51.0909Z" fill="white"/>
</svg>
