<svg width="42" height="42" viewBox="0 0 42 42" fill="none" xmlns="http://www.w3.org/2000/svg">
<path d="M22.5799 3.53473V5.48476C24.0967 5.83652 25.4499 6.69086 26.4197 7.90896C27.3895 9.12706 27.9189 10.6373 27.9219 12.1943C27.9257 13.5012 27.5531 14.7815 26.8488 15.8823L32.0246 25.6942H36.8253V28.8599H33.6929L37.3808 35.8528L34.5824 37.3295L30.1141 28.8599H22.5799V32.0255H19.4142V28.8599H11.88L7.41329 37.3295L4.61328 35.8528L8.30284 28.8599H5.16885V25.6942H9.97271L15.1485 15.8807C14.4431 14.7803 14.0694 13.4999 14.0722 12.1928C14.0759 10.6363 14.6056 9.12675 15.5754 7.9093C16.5452 6.69185 17.898 5.83798 19.4142 5.48635V3.53473H22.5799ZM17.5259 18.1568L13.5515 25.6942H19.4142V22.5286H22.5799V25.6942H28.4442L24.4698 18.1568C23.4132 18.764 22.2157 19.0833 20.9971 19.0828C19.779 19.083 18.5821 18.7637 17.5259 18.1568ZM20.9971 8.46997C20.0049 8.46534 19.0516 8.85491 18.3467 9.55303C17.6417 10.2511 17.2429 11.2006 17.2379 12.1928C17.2379 13.1425 17.5972 14.0098 18.1923 14.6715C18.5461 15.0646 18.9786 15.3788 19.4619 15.5937C19.9451 15.8086 20.4682 15.9194 20.9971 15.9187C22.1145 15.9187 23.1149 15.4375 23.8034 14.673C24.4178 13.9938 24.7574 13.1102 24.7563 12.1943C24.754 11.703 24.6549 11.2168 24.4648 10.7637C24.2746 10.3106 23.9971 9.89943 23.648 9.55359C23.2989 9.20775 22.8852 8.93405 22.4303 8.74812C21.9755 8.56219 21.4884 8.46767 20.9971 8.46997Z" fill="white"/>
</svg>
