<svg width="80" height="80" viewBox="0 0 80 80" fill="none" xmlns="http://www.w3.org/2000/svg">
<rect width="80" height="80" rx="40" fill="#BD1A1A"/>
<path d="M41.5799 22.5347V24.4848C43.0967 24.8365 44.4499 25.6909 45.4197 26.909C46.3895 28.1271 46.9189 29.6373 46.9219 31.1943C46.9257 32.5012 46.5531 33.7815 45.8488 34.8823L51.0246 44.6942H55.8253V47.8599H52.6929L56.3808 54.8528L53.5824 56.3295L49.1141 47.8599H41.5799V51.0255H38.4142V47.8599H30.88L26.4133 56.3295L23.6133 54.8528L27.3028 47.8599H24.1689V44.6942H28.9727L34.1485 34.8807C33.4431 33.7803 33.0694 32.4999 33.0722 31.1928C33.0759 29.6363 33.6056 28.1268 34.5754 26.9093C35.5452 25.6919 36.898 24.838 38.4142 24.4863V22.5347H41.5799ZM36.5259 37.1568L32.5515 44.6942H38.4142V41.5286H41.5799V44.6942H47.4442L43.4698 37.1568C42.4132 37.764 41.2157 38.0833 39.9971 38.0828C38.779 38.083 37.5821 37.7637 36.5259 37.1568ZM39.9971 27.47C39.0049 27.4653 38.0516 27.8549 37.3467 28.553C36.6417 29.2511 36.2429 30.2006 36.2379 31.1928C36.2379 32.1425 36.5972 33.0098 37.1923 33.6715C37.5461 34.0646 37.9786 34.3788 38.4619 34.5937C38.9451 34.8086 39.4682 34.9194 39.9971 34.9187C41.1145 34.9187 42.1149 34.4375 42.8034 33.673C43.4178 32.9938 43.7574 32.1102 43.7563 31.1943C43.754 30.703 43.6549 30.2168 43.4648 29.7637C43.2746 29.3106 42.9971 28.8994 42.648 28.5536C42.2989 28.2077 41.8852 27.934 41.4303 27.7481C40.9755 27.5622 40.4884 27.4677 39.9971 27.47Z" fill="white"/>
</svg>
