<svg width="42" height="42" viewBox="0 0 42 42" fill="none" xmlns="http://www.w3.org/2000/svg">
<path fill-rule="evenodd" clip-rule="evenodd" d="M27.0132 12.5C27.2456 11.8359 27.3784 11.1188 27.3784 10.375C27.3784 6.85547 24.5229 4 21.0033 4C17.4837 4 14.6282 6.85547 14.6282 10.375C14.6282 11.1188 14.7544 11.8359 14.9935 12.5H11.9719C10.511 12.5 9.23597 13.4961 8.87738 14.9172L4.09606 34.0422C3.857 34.9918 4.0695 36.0012 4.6738 36.7781C5.27811 37.5551 6.20781 38 7.19063 38H34.816C35.7988 38 36.7219 37.5484 37.3262 36.7715C37.9305 35.9945 38.143 34.9918 37.9039 34.0355L33.1226 14.9105C32.7707 13.4961 31.4956 12.5 30.0347 12.5H27.0132ZM20.9644 13.7101C22.8174 13.7101 24.3195 12.208 24.3195 10.3551C24.3195 8.50212 22.8174 7 20.9644 7C19.1115 7 17.6094 8.50212 17.6094 10.3551C17.6094 12.208 19.1115 13.7101 20.9644 13.7101ZM14.7539 24.4111L17.665 20.7559H21.4883L16.8535 26.5527L16.5049 26.9863L21.4883 33.2188H17.665L14.7539 29.5625V33.2188H11.793V20.7559H14.7539V24.4111ZM25.3467 23.6689H30.4131V20.7275L24.5039 20.7285C23.0236 20.7432 21.8281 21.9469 21.8281 23.4307C21.8281 23.4376 21.8286 23.4444 21.8291 23.4513C21.8295 23.4575 21.83 23.4636 21.8301 23.4697H21.8281V30.6748H21.834C21.893 32.0683 23.0037 33.1855 24.3945 33.2549V33.2617H28.5352V33.2588C29.962 33.2345 31.116 32.107 31.1846 30.6914H31.1914V27.999H31.1865C31.1314 26.5547 29.9461 25.4004 28.4883 25.4004H26.8447V28.3564H27.7695V28.3779C28.009 28.438 28.191 28.6329 28.2354 28.8779V29.8398H28.2139C28.1538 30.0794 27.959 30.2614 27.7139 30.3057H25.25V30.2842C24.9971 30.2207 24.8065 30.0077 24.7764 29.7432H24.7695V26.1211C24.7719 26.1209 24.7744 26.121 24.7768 26.1211C24.7793 26.1212 24.7817 26.1213 24.7842 26.1211V24.1494H24.8057C24.8691 23.8965 25.0822 23.7059 25.3467 23.6758V23.6689Z" fill="white"/>
</svg>
