<svg width="20" height="20" viewBox="0 0 20 20" fill="none" xmlns="http://www.w3.org/2000/svg">
<path d="M11.6916 10H11.6662V16.5664C11.6995 16.8164 11.6167 17.0838 11.425 17.2588C11.348 17.3359 11.2562 17.3967 11.1555 17.4385C11.0547 17.4803 10.9463 17.502 10.8371 17.502C10.7281 17.5019 10.6204 17.4802 10.5197 17.4385C10.4191 17.3967 10.3272 17.3358 10.2502 17.2588L8.57442 15.583C8.48376 15.4942 8.41511 15.3854 8.37325 15.2656C8.33135 15.1457 8.3175 15.0177 8.33321 14.8916V10H8.30782L5.38106 6.25H14.6184L11.6916 10ZM15.8332 2.5C16.0165 2.50001 16.1915 2.56694 16.3498 2.68359C16.5227 2.81985 16.6348 3.0188 16.6613 3.2373C16.6879 3.45583 16.6266 3.67592 16.4914 3.84961L15.594 5H4.40547L3.50801 3.84961C3.37286 3.67593 3.31156 3.45578 3.33809 3.2373C3.36465 3.01885 3.47682 2.81985 3.64961 2.68359C3.80787 2.56698 3.98298 2.50007 4.16622 2.5H15.8332Z" fill="white"/>
</svg>
