<svg width="42" height="42" viewBox="0 0 42 42" fill="none" xmlns="http://www.w3.org/2000/svg">
<path d="M40.0706 9.84373C39.8817 9.7258 39.6658 9.6579 39.4434 9.64642C39.2209 9.63494 38.9992 9.68026 38.7991 9.7781C31.7559 13.2234 26.7258 11.609 21.4085 9.90607C15.8156 8.12599 10.0406 6.28029 2.04914 10.1817C1.82844 10.2895 1.6424 10.457 1.51218 10.6652C1.38195 10.8735 1.31277 11.1141 1.3125 11.3597V31.0357C1.31247 31.2584 1.3691 31.4774 1.47706 31.6722C1.58502 31.867 1.74077 32.031 1.92964 32.149C2.11851 32.267 2.33429 32.335 2.55668 32.3466C2.77907 32.3582 3.00075 32.313 3.20086 32.2153C10.2441 28.77 15.2742 30.3844 20.5997 32.0873C23.7563 33.0963 26.9719 34.125 30.6075 34.125C33.4113 34.125 36.4695 33.5147 39.9443 31.8183C40.165 31.7105 40.351 31.543 40.4813 31.3347C40.6115 31.1265 40.6807 30.8859 40.6809 30.6403V10.9643C40.6829 10.741 40.6279 10.5209 40.5211 10.3248C40.4143 10.1288 40.2593 9.96317 40.0706 9.84373ZM8.01496 26.25C8.01496 26.25 7.12926 26.25 6.5625 26.25C5.99574 26.25 5 26.25 5 26.25V13.125C5 13.125 6.125 13.125 6.5625 13.125C7 13.125 8.01496 13.125 8.01496 13.125V26.25ZM21 26.25C19.9616 26.25 18.9466 25.9421 18.0833 25.3652C17.2199 24.7883 16.547 23.9684 16.1496 23.0091C15.7523 22.0498 15.6483 20.9942 15.8509 19.9758C16.0534 18.9574 16.5535 18.0219 17.2877 17.2877C18.0219 16.5534 18.9574 16.0534 19.9758 15.8509C20.9942 15.6483 22.0498 15.7523 23.0091 16.1496C23.9684 16.547 24.7883 17.2199 25.3652 18.0832C25.9421 18.9466 26.25 19.9616 26.25 21C26.25 22.3924 25.6969 23.7277 24.7123 24.7123C23.7277 25.6969 22.3924 26.25 21 26.25ZM37 28.875C37 28.875 36.0043 28.875 35.4375 28.875C34.7226 28.875 34.0126 28.875 34.0126 28.875V15.75C34.0126 15.75 35.0894 15.75 35.4375 15.75C35.7856 15.75 37 15.75 37 15.75C37 20.125 37 24.5 37 28.875Z" fill="white"/>
</svg>
