<svg width="78" height="78" viewBox="0 0 78 78" fill="none" xmlns="http://www.w3.org/2000/svg">
<rect width="78" height="78" rx="39" fill="#BD1A1A"/>
<path d="M57.5535 27.8439C57.3646 27.7259 57.1487 27.658 56.9263 27.6465C56.7038 27.6351 56.4821 27.6804 56.2821 27.7782C49.2388 31.2235 44.2087 29.6092 38.8914 27.9062C33.2985 26.1261 27.5235 24.2804 19.5321 28.1818C19.3113 28.2896 19.1253 28.4571 18.9951 28.6653C18.8649 28.8736 18.7957 29.1142 18.7954 29.3598V49.0358C18.7954 49.2585 18.852 49.4775 18.96 49.6723C19.0679 49.8671 19.2237 50.0312 19.4125 50.1491C19.6014 50.2671 19.8172 50.3351 20.0396 50.3467C20.262 50.3583 20.4837 50.3131 20.6838 50.2154C27.727 46.7701 32.7571 48.3845 38.0826 50.0874C41.2392 51.0964 44.4548 52.1251 48.0904 52.1251C50.8942 52.1251 53.9524 51.5148 57.4272 49.8184C57.6479 49.7106 57.834 49.5431 57.9642 49.3349C58.0944 49.1266 58.1636 48.886 58.1638 48.6404V28.9644C58.1658 28.7411 58.1108 28.521 58.004 28.325C57.8972 28.1289 57.7422 27.9633 57.5535 27.8439ZM25.3579 42.9376C25.3579 43.2857 25.2196 43.6195 24.9735 43.8657C24.7273 44.1118 24.3935 44.2501 24.0454 44.2501C23.6973 44.2501 23.3635 44.1118 23.1173 43.8657C22.8712 43.6195 22.7329 43.2857 22.7329 42.9376V32.4376C22.7329 32.0895 22.8712 31.7557 23.1173 31.5095C23.3635 31.2634 23.6973 31.1251 24.0454 31.1251C24.3935 31.1251 24.7273 31.2634 24.9735 31.5095C25.2196 31.7557 25.3579 32.0895 25.3579 32.4376V42.9376ZM38.4829 44.2501C37.4446 44.2501 36.4295 43.9422 35.5662 43.3653C34.7028 42.7884 34.0299 41.9685 33.6325 41.0092C33.2352 40.0499 33.1312 38.9943 33.3338 37.9759C33.5364 36.9575 34.0364 36.022 34.7706 35.2878C35.5048 34.5536 36.4403 34.0536 37.4587 33.851C38.4771 33.6484 39.5327 33.7524 40.492 34.1497C41.4513 34.5471 42.2712 35.22 42.8481 36.0834C43.425 36.9467 43.7329 37.9617 43.7329 39.0001C43.7329 40.3925 43.1798 41.7278 42.1952 42.7124C41.2107 43.697 39.8753 44.2501 38.4829 44.2501ZM54.2329 45.5626C54.2329 45.9107 54.0946 46.2445 53.8485 46.4907C53.6023 46.7368 53.2685 46.8751 52.9204 46.8751C52.5723 46.8751 52.2385 46.7368 51.9923 46.4907C51.7462 46.2445 51.6079 45.9107 51.6079 45.5626V35.0626C51.6079 34.7145 51.7462 34.3807 51.9923 34.1345C52.2385 33.8884 52.5723 33.7501 52.9204 33.7501C53.2685 33.7501 53.6023 33.8884 53.8485 34.1345C54.0946 34.3807 54.2329 34.7145 54.2329 35.0626V45.5626Z" fill="white"/>
</svg>
