<svg width="24" height="24" viewBox="0 0 24 24" fill="none" xmlns="http://www.w3.org/2000/svg">
<path d="M20.3456 6.20011C21.2592 6.20011 21.9998 5.4595 21.9998 4.54592C21.9998 3.63233 21.2592 2.89172 20.3456 2.89172C19.432 2.89172 18.6914 3.63233 18.6914 4.54592C18.6914 5.4595 19.432 6.20011 20.3456 6.20011Z" fill="white"/>
<path d="M7.04924 14.8239C7.04924 14.8732 7.04924 14.9093 7.04924 14.9472C7.04355 16.2808 7.03596 17.6144 7.03216 18.9499C7.03216 19.0258 7.0113 19.0524 6.93162 19.0524C5.92052 19.0486 3.76172 19.0486 3.76172 19.0486V6.05594C3.76172 6.05594 3.77879 6.05594 3.81294 6.05594C4.32513 6.05594 8.59151 6.05214 10.6839 6.04455C11.843 6.04076 12.9983 6.05214 14.1573 6.04455C14.66 6.04076 15.6086 6.03697 16.1094 6.06352C16.4224 6.08012 16.7562 6.11095 17.2722 6.26651C18.0083 6.48846 18.5679 6.90959 18.9245 7.6039C19.137 8.01934 19.2489 8.46514 19.3039 8.92422C19.4026 9.73234 19.3969 10.5443 19.3608 11.3562C19.3343 11.9632 19.247 12.5627 19.0156 13.1318C18.676 13.9665 18.0652 14.4862 17.1888 14.693C17.1053 14.712 17.0237 14.7329 16.9402 14.7461C16.8568 14.7613 16.7733 14.7689 16.6652 14.7841C16.7107 14.8619 16.7449 14.9302 16.7885 14.9909C17.257 15.6301 17.7256 16.2675 18.1942 16.9049C18.657 17.5347 19.1218 18.1665 19.5828 18.7982C19.634 18.8683 19.6719 18.9499 19.7251 19.0391C19.6871 19.0448 19.6606 19.0524 19.634 19.0524C18.4901 19.0524 17.3462 19.0524 16.2004 19.0561C16.1226 19.0561 16.0866 19.0163 16.0506 18.9613C15.6161 18.3049 15.1836 17.6448 14.7435 16.9922C14.2712 16.2922 13.7893 15.5979 13.3132 14.8979C13.2771 14.8448 13.2392 14.8239 13.1747 14.8239C11.1639 14.8239 9.15302 14.8239 7.14409 14.8239H7.05113H7.04924ZM7.04924 11.9424C7.10046 11.9424 7.1384 11.9424 7.17634 11.9424C9.19665 11.9462 11.217 11.9499 13.2373 11.9518C13.905 11.9518 14.5709 11.9462 15.2386 11.9348C15.4283 11.931 15.6161 11.8892 15.7831 11.7925C16.024 11.6521 16.0847 11.4112 16.0961 11.1608C16.1113 10.8383 16.115 10.5158 16.1113 10.1952C16.1075 9.93343 16.0999 9.66974 16.0126 9.41934C15.9519 9.24861 15.8476 9.11771 15.6825 9.03993C15.4473 8.92991 15.195 8.90525 14.9427 8.90525C14.2863 8.90335 13.6281 8.91473 12.9717 8.91283C11.8657 8.90904 10.7598 8.89576 9.65383 8.89386C8.91969 8.89386 8.18744 8.90335 7.4533 8.91094C7.31861 8.91094 7.18392 8.92422 7.05113 8.9318V11.9462L7.04924 11.9424Z" fill="white"/>
</svg>
