<svg width="78" height="78" viewBox="0 0 78 78" fill="none" xmlns="http://www.w3.org/2000/svg">
<rect width="78" height="78" rx="39" fill="#BD1A1A"/>
<path d="M53.9842 27.9105L38.8731 21.0807C38.7619 21.0276 38.6405 21 38.5176 21C38.3947 21 38.2733 21.0276 38.162 21.0807L23.0509 27.9105C22.8947 27.9798 22.7613 28.0933 22.6667 28.2375C22.5722 28.3816 22.5204 28.5504 22.5176 28.7236V33.5659C22.5176 42.4555 27.7442 53.2242 38.1976 56.9463C38.4051 57.0179 38.6301 57.0179 38.8376 56.9463C49.2909 53.2242 54.5176 42.4555 54.5176 33.5659V28.7236C54.5148 28.5504 54.463 28.3816 54.3684 28.2375C54.2739 28.0933 54.1405 27.9798 53.9842 27.9105ZM46.8518 33.8912L37.4651 46.0367C37.3287 46.2118 37.1575 46.3557 36.9627 46.459C36.7679 46.5624 36.5538 46.6229 36.3345 46.6365L36.242 46.6401C35.8287 46.6394 35.4324 46.4725 35.1398 46.1758L30.3042 41.2612C30.0126 40.9641 29.8491 40.5614 29.8496 40.1418C29.8501 39.7221 30.0146 39.3198 30.3069 39.0235C30.5992 38.7271 30.9954 38.5608 31.4084 38.5614C31.8213 38.5619 32.2171 38.7291 32.5087 39.0262L36.1034 42.6796L44.4056 31.938C44.6651 31.6218 45.0357 31.4209 45.4385 31.3779C45.8414 31.3349 46.245 31.4531 46.5635 31.7075C46.882 31.9619 47.0905 32.3324 47.1447 32.7404C47.1988 33.1485 47.0944 33.5619 46.8536 33.893L46.8518 33.8912Z" fill="white"/>
</svg>
