<svg width="42" height="42" viewBox="0 0 42 42" fill="none" xmlns="http://www.w3.org/2000/svg">
<path d="M26.4117 21C26.4117 23.9873 23.9901 26.409 21.0027 26.409C18.0154 26.409 15.5938 23.9873 15.5938 21C15.5938 18.0127 18.0154 15.591 21.0027 15.591C23.9901 15.591 26.4117 18.0127 26.4117 21Z" fill="white"/>
<path fill-rule="evenodd" clip-rule="evenodd" d="M31.9174 10.0123C34.4096 12.5045 35.9803 15.77 36.3715 19.2727L36.3945 19.5156H39.9297V22.4883H36.4023L36.3715 22.7273C35.9803 26.23 34.4096 29.4955 31.9174 31.9877C29.4252 34.4799 26.1597 36.0506 22.657 36.4418L22.4204 36.4837V40H19.4394V36.4837L19.2024 36.4418C15.6997 36.0506 12.4342 34.4799 9.94198 31.9877C7.44979 29.4955 5.87912 26.23 5.48787 22.7273L5.46094 22.4844H1.92969V19.5039H5.46094L5.48787 19.2727C5.87912 15.77 7.44979 12.5045 9.94198 10.0123C12.4342 7.5201 15.6997 5.94943 19.2024 5.55818L19.441 5.52711V2H22.4172V5.52711L22.657 5.55818C26.1597 5.94943 29.4252 7.5201 31.9174 10.0123ZM21.0012 33.4933C27.901 33.4933 33.4945 27.8999 33.4945 21C33.4945 14.1001 27.901 8.50665 21.0012 8.50665C14.1013 8.50665 8.50781 14.1001 8.50781 21C8.50781 27.8999 14.1013 33.4933 21.0012 33.4933ZM26.4117 21C26.4117 23.9873 23.9901 26.409 21.0027 26.409C18.0154 26.409 15.5938 23.9873 15.5938 21C15.5938 18.0127 18.0154 15.591 21.0027 15.591C23.9901 15.591 26.4117 18.0127 26.4117 21Z" fill="white"/>
</svg>
