<svg width="1454" height="1454" viewBox="0 0 1454 1454" fill="none" xmlns="http://www.w3.org/2000/svg">
<g filter="url(#filter0_d_1032_6424)">
<g clip-path="url(#clip0_1032_6424)">
<rect x="55" y="53" width="1344" height="1344" rx="672" fill="white"/>
<line x1="727.5" y1="479" x2="727.5" y2="1397" stroke="url(#paint0_linear_1032_6424)"/>
<line x1="962.5" y1="437" x2="962.5" y2="1355" stroke="url(#paint1_linear_1032_6424)"/>
<line x1="1197.5" y1="515" x2="1197.5" y2="1205" stroke="url(#paint2_linear_1032_6424)"/>
<line x1="257.5" y1="515" x2="257.5" y2="1205" stroke="url(#paint3_linear_1032_6424)"/>
<line y1="-0.5" x2="690" y2="-0.5" transform="matrix(4.37114e-08 -1 -1 -4.37114e-08 257 835)" stroke="url(#paint4_linear_1032_6424)"/>
<line y1="-0.5" x2="690" y2="-0.5" transform="matrix(4.37114e-08 -1 -1 -4.37114e-08 491 559)" stroke="url(#paint5_linear_1032_6424)"/>
<line y1="-0.5" x2="690" y2="-0.5" transform="matrix(4.37114e-08 -1 -1 -4.37114e-08 726 419)" stroke="url(#paint6_linear_1032_6424)"/>
<line y1="-0.5" x2="690" y2="-0.5" transform="matrix(4.37114e-08 -1 -1 -4.37114e-08 962 562)" stroke="url(#paint7_linear_1032_6424)"/>
<line y1="-0.5" x2="690" y2="-0.5" transform="matrix(4.37114e-08 -1 -1 -4.37114e-08 1197 747)" stroke="url(#paint8_linear_1032_6424)"/>
<line x1="492.5" y1="437" x2="492.5" y2="1355" stroke="url(#paint9_linear_1032_6424)"/>
<g clip-path="url(#clip1_1032_6424)">
<rect x="704" y="153" width="44" height="44" rx="12.1379" fill="white"/>
<path fill-rule="evenodd" clip-rule="evenodd" d="M726.043 163.543H722.197V171.251H726.043C728.164 171.251 729.89 169.521 729.89 167.398C729.89 165.272 728.164 163.543 726.043 163.543Z" fill="#BD1A1A"/>
<path fill-rule="evenodd" clip-rule="evenodd" d="M726.043 175.027H722.198V178.88H718.43V159.769H726.043C730.241 159.769 733.659 163.191 733.659 167.398C733.659 171.605 730.241 175.027 726.043 175.027ZM733.659 190.364C733.659 188.075 732.642 186.022 731.042 184.623C732.642 183.224 733.659 181.171 733.659 178.88C733.659 177.057 733.015 175.381 731.945 174.069C730.97 174.934 729.811 175.589 728.527 175.964C729.355 176.67 729.891 177.708 729.891 178.88C729.891 181.006 728.166 182.733 726.045 182.733H722.198V180.067H718.43V190.205H722.198V186.509H726.043C728.164 186.509 729.891 188.239 729.891 190.364H733.659ZM703.924 152.945V197.188H748.166V152.945H703.924Z" fill="#BD1A1A"/>
</g>
</g>
<rect x="55" y="53" width="1344" height="1344" rx="672" stroke="url(#paint10_linear_1032_6424)"/>
</g>
<defs>
<filter id="filter0_d_1032_6424" x="0.5" y="0.5" width="1453" height="1453" filterUnits="userSpaceOnUse" color-interpolation-filters="sRGB">
<feFlood flood-opacity="0" result="BackgroundImageFix"/>
<feColorMatrix in="SourceAlpha" type="matrix" values="0 0 0 0 0 0 0 0 0 0 0 0 0 0 0 0 0 0 127 0" result="hardAlpha"/>
<feOffset dy="2"/>
<feGaussianBlur stdDeviation="27"/>
<feComposite in2="hardAlpha" operator="out"/>
<feColorMatrix type="matrix" values="0 0 0 0 0 0 0 0 0 0 0 0 0 0 0 0 0 0 0.03 0"/>
<feBlend mode="normal" in2="BackgroundImageFix" result="effect1_dropShadow_1032_6424"/>
<feBlend mode="normal" in="SourceGraphic" in2="effect1_dropShadow_1032_6424" result="shape"/>
</filter>
<linearGradient id="paint0_linear_1032_6424" x1="727" y1="1007.28" x2="727" y2="817.921" gradientUnits="userSpaceOnUse">
<stop stop-color="#DBDBDB"/>
<stop offset="1" stop-color="white"/>
</linearGradient>
<linearGradient id="paint1_linear_1032_6424" x1="962" y1="1024.5" x2="962" y2="884.5" gradientUnits="userSpaceOnUse">
<stop stop-color="#DBDBDB"/>
<stop offset="1" stop-color="white"/>
</linearGradient>
<linearGradient id="paint2_linear_1032_6424" x1="1197" y1="912.07" x2="1197" y2="769.745" gradientUnits="userSpaceOnUse">
<stop stop-color="#DBDBDB"/>
<stop offset="1" stop-color="white"/>
</linearGradient>
<linearGradient id="paint3_linear_1032_6424" x1="257" y1="912.07" x2="257" y2="769.745" gradientUnits="userSpaceOnUse">
<stop stop-color="#DBDBDB"/>
<stop offset="1" stop-color="white"/>
</linearGradient>
<linearGradient id="paint4_linear_1032_6424" x1="397.07" y1="2.77099e-06" x2="254.745" y2="2.13881e-06" gradientUnits="userSpaceOnUse">
<stop stop-color="#DBDBDB"/>
<stop offset="1" stop-color="white"/>
</linearGradient>
<linearGradient id="paint5_linear_1032_6424" x1="397.07" y1="2.77099e-06" x2="254.745" y2="2.13881e-06" gradientUnits="userSpaceOnUse">
<stop stop-color="#DBDBDB"/>
<stop offset="1" stop-color="white"/>
</linearGradient>
<linearGradient id="paint6_linear_1032_6424" x1="397.07" y1="2.77099e-06" x2="254.745" y2="2.13881e-06" gradientUnits="userSpaceOnUse">
<stop stop-color="#DBDBDB"/>
<stop offset="1" stop-color="white"/>
</linearGradient>
<linearGradient id="paint7_linear_1032_6424" x1="397.07" y1="2.77099e-06" x2="254.745" y2="2.13881e-06" gradientUnits="userSpaceOnUse">
<stop stop-color="#DBDBDB"/>
<stop offset="1" stop-color="white"/>
</linearGradient>
<linearGradient id="paint8_linear_1032_6424" x1="397.07" y1="2.77099e-06" x2="254.745" y2="2.13881e-06" gradientUnits="userSpaceOnUse">
<stop stop-color="#DBDBDB"/>
<stop offset="1" stop-color="white"/>
</linearGradient>
<linearGradient id="paint9_linear_1032_6424" x1="492" y1="1071" x2="492" y2="911" gradientUnits="userSpaceOnUse">
<stop stop-color="#DBDBDB"/>
<stop offset="1" stop-color="white"/>
</linearGradient>
<linearGradient id="paint10_linear_1032_6424" x1="727" y1="995" x2="727" y2="1710.5" gradientUnits="userSpaceOnUse">
<stop stop-color="white"/>
<stop offset="1" stop-color="#DB0007"/>
</linearGradient>
<clipPath id="clip0_1032_6424">
<rect x="55" y="53" width="1344" height="1344" rx="672" fill="white"/>
</clipPath>
<clipPath id="clip1_1032_6424">
<rect x="704" y="153" width="44" height="44" rx="12.1379" fill="white"/>
</clipPath>
</defs>
</svg>
