<svg width="1454" height="1454" viewBox="0 0 1454 1454" fill="none" xmlns="http://www.w3.org/2000/svg">
<g filter="url(#filter0_d_1032_6460)">
<g clip-path="url(#clip0_1032_6460)">
<line x1="727.5" y1="479" x2="727.5" y2="1397" stroke="url(#paint0_linear_1032_6460)"/>
<line x1="962.5" y1="437" x2="962.5" y2="1355" stroke="url(#paint1_linear_1032_6460)"/>
<line x1="1197.5" y1="515" x2="1197.5" y2="1205" stroke="url(#paint2_linear_1032_6460)"/>
<line x1="257.5" y1="515" x2="257.5" y2="1205" stroke="url(#paint3_linear_1032_6460)"/>
<line y1="-0.5" x2="690" y2="-0.5" transform="matrix(4.37114e-08 -1 -1 -4.37114e-08 257 835)" stroke="url(#paint4_linear_1032_6460)"/>
<line y1="-0.5" x2="690" y2="-0.5" transform="matrix(4.37114e-08 -1 -1 -4.37114e-08 491 559)" stroke="url(#paint5_linear_1032_6460)"/>
<line y1="-0.5" x2="690" y2="-0.5" transform="matrix(4.37114e-08 -1 -1 -4.37114e-08 726 419)" stroke="url(#paint6_linear_1032_6460)"/>
<line y1="-0.5" x2="690" y2="-0.5" transform="matrix(4.37114e-08 -1 -1 -4.37114e-08 962 562)" stroke="url(#paint7_linear_1032_6460)"/>
<line y1="-0.5" x2="690" y2="-0.5" transform="matrix(4.37114e-08 -1 -1 -4.37114e-08 1197 747)" stroke="url(#paint8_linear_1032_6460)"/>
<line x1="492.5" y1="437" x2="492.5" y2="1355" stroke="url(#paint9_linear_1032_6460)"/>
</g>
<rect x="55" y="53" width="1344" height="1344" rx="672" stroke="url(#paint10_linear_1032_6460)" shape-rendering="crispEdges"/>
</g>
<defs>
<filter id="filter0_d_1032_6460" x="0.5" y="0.5" width="1453" height="1453" filterUnits="userSpaceOnUse" color-interpolation-filters="sRGB">
<feFlood flood-opacity="0" result="BackgroundImageFix"/>
<feColorMatrix in="SourceAlpha" type="matrix" values="0 0 0 0 0 0 0 0 0 0 0 0 0 0 0 0 0 0 127 0" result="hardAlpha"/>
<feOffset dy="2"/>
<feGaussianBlur stdDeviation="27"/>
<feComposite in2="hardAlpha" operator="out"/>
<feColorMatrix type="matrix" values="0 0 0 0 0 0 0 0 0 0 0 0 0 0 0 0 0 0 0.03 0"/>
<feBlend mode="normal" in2="BackgroundImageFix" result="effect1_dropShadow_1032_6460"/>
<feBlend mode="normal" in="SourceGraphic" in2="effect1_dropShadow_1032_6460" result="shape"/>
</filter>
<linearGradient id="paint0_linear_1032_6460" x1="727" y1="1007.28" x2="727" y2="817.921" gradientUnits="userSpaceOnUse">
<stop stop-color="#DBDBDB"/>
<stop offset="1" stop-color="white"/>
</linearGradient>
<linearGradient id="paint1_linear_1032_6460" x1="962" y1="1024.5" x2="962" y2="884.5" gradientUnits="userSpaceOnUse">
<stop stop-color="#DBDBDB"/>
<stop offset="1" stop-color="white"/>
</linearGradient>
<linearGradient id="paint2_linear_1032_6460" x1="1197" y1="912.07" x2="1197" y2="769.745" gradientUnits="userSpaceOnUse">
<stop stop-color="#DBDBDB"/>
<stop offset="1" stop-color="white"/>
</linearGradient>
<linearGradient id="paint3_linear_1032_6460" x1="257" y1="912.07" x2="257" y2="769.745" gradientUnits="userSpaceOnUse">
<stop stop-color="#DBDBDB"/>
<stop offset="1" stop-color="white"/>
</linearGradient>
<linearGradient id="paint4_linear_1032_6460" x1="397.07" y1="2.77099e-06" x2="254.745" y2="2.13881e-06" gradientUnits="userSpaceOnUse">
<stop stop-color="#DBDBDB"/>
<stop offset="1" stop-color="white"/>
</linearGradient>
<linearGradient id="paint5_linear_1032_6460" x1="397.07" y1="2.77099e-06" x2="254.745" y2="2.13881e-06" gradientUnits="userSpaceOnUse">
<stop stop-color="#DBDBDB"/>
<stop offset="1" stop-color="white"/>
</linearGradient>
<linearGradient id="paint6_linear_1032_6460" x1="397.07" y1="2.77099e-06" x2="254.745" y2="2.13881e-06" gradientUnits="userSpaceOnUse">
<stop stop-color="#DBDBDB"/>
<stop offset="1" stop-color="white"/>
</linearGradient>
<linearGradient id="paint7_linear_1032_6460" x1="397.07" y1="2.77099e-06" x2="254.745" y2="2.13881e-06" gradientUnits="userSpaceOnUse">
<stop stop-color="#DBDBDB"/>
<stop offset="1" stop-color="white"/>
</linearGradient>
<linearGradient id="paint8_linear_1032_6460" x1="397.07" y1="2.77099e-06" x2="254.745" y2="2.13881e-06" gradientUnits="userSpaceOnUse">
<stop stop-color="#DBDBDB"/>
<stop offset="1" stop-color="white"/>
</linearGradient>
<linearGradient id="paint9_linear_1032_6460" x1="492" y1="1071" x2="492" y2="911" gradientUnits="userSpaceOnUse">
<stop stop-color="#DBDBDB"/>
<stop offset="1" stop-color="white"/>
</linearGradient>
<linearGradient id="paint10_linear_1032_6460" x1="727" y1="995" x2="727" y2="1710.5" gradientUnits="userSpaceOnUse">
<stop stop-color="white"/>
<stop offset="1" stop-color="#DB0007"/>
</linearGradient>
<clipPath id="clip0_1032_6460">
<rect x="55" y="53" width="1344" height="1344" rx="672" fill="white"/>
</clipPath>
</defs>
</svg>
